HIERARCHY
ROOT Hips
{
	OFFSET	0.00	0.00	0.00
	CHANNELS 6 Xposition Yposition Zposition Zrotation Xrotation Yrotation
	JOINT LeftUpLeg
	{
		OFFSET	 0.126116	-0.065224	 0.014019
		CHANNELS 3 Zrotation Xrotation Yrotation
		JOINT LeftLeg
		{
			OFFSET	 0.000000	 0.569914	 0.000000
			CHANNELS 3 Zrotation Xrotation Yrotation
			JOINT LeftFoot
			{
				OFFSET	 0.000000	 0.544423	 0.000000
				CHANNELS 3 Zrotation Xrotation Yrotation
				JOINT LeftToeBase
				{
					OFFSET	 0.000000	 0.207117	 0.000000
					CHANNELS 3 Zrotation Xrotation Yrotation
					End Site
					{
						OFFSET	 0.000000	 0.207117	 0.000000
					}
				}
			}
		}
	}
	JOINT RightUpLeg
	{
		OFFSET	-0.124023	-0.065224	 0.008373
		CHANNELS 3 Zrotation Xrotation Yrotation
		JOINT RightLeg
		{
			OFFSET	 0.000000	 0.570047	 0.000000
			CHANNELS 3 Zrotation Xrotation Yrotation
			JOINT RightFoot
			{
				OFFSET	 0.000000	 0.544354	 0.000000
				CHANNELS 3 Zrotation Xrotation Yrotation
				JOINT RightToeBase
				{
					OFFSET	 0.000000	 0.207540	 0.000000
					CHANNELS 3 Zrotation Xrotation Yrotation
					End Site
					{
						OFFSET	 0.000000	 0.207540	 0.000000
					}
				}
			}
		}
	}
	JOINT Spine
	{
		OFFSET	 0.000184	 0.117403	 0.007763
		CHANNELS 3 Zrotation Xrotation Yrotation
		JOINT Spine1
		{
			OFFSET	 0.000000	 0.137269	 0.000000
			CHANNELS 3 Zrotation Xrotation Yrotation
			JOINT Spine2
			{
				OFFSET	 0.000000	 0.156879	 0.000000
				CHANNELS 3 Zrotation Xrotation Yrotation
				JOINT LeftShoulder
				{
					OFFSET	 0.080501	 0.160143	 0.002496
					CHANNELS 3 Zrotation Xrotation Yrotation
					JOINT LeftArm
					{
						OFFSET	 0.000000	 0.164363	 0.000000
						CHANNELS 3 Zrotation Xrotation Yrotation
						JOINT LeftForeArm
						{
							OFFSET	 0.000000	 0.364576	 0.000000
							CHANNELS 3 Zrotation Xrotation Yrotation
							JOINT LeftHand
							{
								OFFSET	 0.000000	 0.360812	 0.000000
								CHANNELS 3 Zrotation Xrotation Yrotation
								JOINT LeftHandIndex1
								{
									OFFSET	 0.000000	 0.086006	 0.000000
									CHANNELS 3 Zrotation Xrotation Yrotation
									JOINT LeftHandIndex2
									{
										OFFSET	 0.000000	 0.047237	 0.000000
										CHANNELS 3 Zrotation Xrotation Yrotation
										JOINT LeftHandIndex3
										{
											OFFSET	-0.004284	 0.038165	 0.000551
											CHANNELS 3 Zrotation Xrotation Yrotation
											End Site
											{
												OFFSET	-0.004284	 0.038165	 0.000551
											}
										}
									}
								}
							}
						}
					}
				}
				JOINT Neck
				{
					OFFSET	 0.000000	 0.176489	 0.000000
					CHANNELS 3 Zrotation Xrotation Yrotation
					JOINT Head
					{
						OFFSET	 0.000000	 0.077941	 0.001747
						CHANNELS 3 Zrotation Xrotation Yrotation
						End Site
						{
							OFFSET	 0.000000	 0.077941	 0.001747
						}
					}
				}
				JOINT RightShoulder
				{
					OFFSET	-0.080363	 0.159706	-0.000306
					CHANNELS 3 Zrotation Xrotation Yrotation
					JOINT RightArm
					{
						OFFSET	 0.000000	 0.164196	 0.000000
						CHANNELS 3 Zrotation Xrotation Yrotation
						JOINT RightForeArm
						{
							OFFSET	 0.000000	 0.365611	 0.000000
							CHANNELS 3 Zrotation Xrotation Yrotation
							JOINT RightHand
							{
								OFFSET	 0.000000	 0.360648	 0.000000
								CHANNELS 3 Zrotation Xrotation Yrotation
								JOINT RightHandIndex1
								{
									OFFSET	 0.000000	 0.069977	 0.000000
									CHANNELS 3 Zrotation Xrotation Yrotation
									JOINT RightHandIndex2
									{
										OFFSET	 0.000000	 0.052305	 0.000000
										CHANNELS 3 Zrotation Xrotation Yrotation
										JOINT RightHandIndex3
										{
											OFFSET	 0.009002	 0.042196	 0.000782
											CHANNELS 3 Zrotation Xrotation Yrotation
											End Site
											{
												OFFSET	 0.009002	 0.042196	 0.000782
											}
										}
									}
								}
							}
						}
					}
				}
			}
		}
	}
}
MOTION
Frames:    5
Frame Time: 0.03333334
-0.046047	 1.234504	-1.246533	-3.202273	 1.411591	-174.175600	 177.469000	 7.918279	-23.410200	 4.435218	-30.260680	 6.133117	 8.115796	 81.579280	-0.943207	 1.512287	 31.240310	-2.811662	 163.857200	 26.061790	 28.288140	-5.753562	-53.127960	 6.343007	 1.816446	 69.967860	-1.957068	-1.668530	 33.137300	 2.886185	-1.440422	 8.617994	-2.763788	 0.402199	 3.554769	-0.786601	-0.236706	-3.940328	-0.749575	-121.358900	 7.423546	 94.035510	 46.214200	 8.279104	-19.381360	 4.233519	-0.218812	-0.075833	-9.623618	 5.882247	 2.489533	 4.624177	 18.856530	-1.654968	-5.863953	 21.470840	 2.373669	 5.331528	 4.340008	-0.169039	-0.168371	-5.009586	-0.144698	-2.107851	-2.034301	-3.139565	 118.423900	-0.013285	-90.826360	-2.376369	 47.300250	-3.542045	-4.933185	-0.193859	 0.050276	-8.251895	-5.130798	-11.570680	-2.438165	 25.992480	 1.336381	 15.855080	 44.981340	-11.843920	-8.529009	 23.990480	-1.227679
-0.045976	 1.235616	-1.249140	-3.216539	 1.357725	-174.125600	 177.557100	 7.849081	-23.767410	 4.465231	-30.309080	 6.227385	 8.277065	 81.470690	-1.122234	 1.515696	 31.282730	-2.813266	 163.554900	 26.305380	 28.900280	-5.770718	-53.138360	 6.366671	 1.907994	 70.356070	-2.048545	-1.670018	 33.155090	 2.886929	-1.377634	 8.593086	-3.216531	 0.391210	 3.549163	-0.800878	-0.233458	-3.947357	-0.749694	-121.357700	 7.465994	 94.056580	 45.978040	 8.095330	-19.186020	 4.406229	-0.218879	-0.240376	-9.004841	 5.624299	 2.115839	 4.629660	 18.874520	-1.657891	-5.863904	 21.486640	 2.375413	 5.332207	 4.355904	-0.168750	-0.169148	-5.013196	-0.141127	-2.094715	-2.052727	-3.141457	 118.418000	-0.038320	-90.814610	-2.204684	 47.181180	-3.602034	-5.120778	-0.194425	 0.214819	-8.153195	-5.180560	-11.555360	-2.418222	 25.844600	 1.325671	 15.817460	 44.837070	-11.786140	-8.529588	 23.842030	-1.217775
-0.045878	 1.236600	-1.252997	-3.235883	 1.283532	-174.057600	 177.646600	 7.742639	-24.036030	 4.456049	-30.377450	 6.257948	 8.542461	 81.410530	-1.429092	 1.520361	 31.340710	-2.815464	 163.188700	 26.704780	 29.608920	-5.793362	-53.141230	 6.399937	 2.049752	 70.920200	-2.187328	-1.672053	 33.179410	 2.887948	-1.292527	 8.557987	-3.836694	 0.377578	 3.546403	-0.820444	-0.229696	-3.959422	-0.751344	-121.356200	 7.524034	 94.085400	 45.623890	 7.871235	-18.911780	 4.639503	-0.218792	-0.465442	-8.119762	 5.249011	 1.592207	 4.637156	 18.899110	-1.661890	-5.863837	 21.508240	 2.377797	 5.333134	 4.377633	-0.168355	-0.170210	-5.018131	-0.136245	-2.076751	-2.077827	-3.144034	 118.409900	-0.072553	-90.798550	-1.939463	 47.043530	-3.708618	-5.372156	-0.195023	 0.439944	-8.048320	-5.275019	-11.542070	-2.391047	 25.642420	 1.311142	 15.766510	 44.639800	-11.707600	-8.530335	 23.639080	-1.204258
-0.045636	 1.237873	-1.263286	-3.279919	 1.111942	-173.901500	 177.804400	 7.420659	-24.502870	 4.478514	-30.503020	 6.421932	 9.210390	 81.453390	-2.246976	 1.531152	 31.474580	-2.820566	 162.408900	 27.830530	 31.042720	-5.836114	-53.068760	 6.485628	 2.314556	 72.150910	-2.495082	-1.676754	 33.235550	 2.890304	-1.099510	 8.473562	-5.272890	 0.352777	 3.563068	-0.865843	-0.224188	-3.997737	-0.761195	-121.352800	 7.658030	 94.151950	 44.674110	 7.378739	-18.241870	 5.175167	-0.218337	-0.984906	-5.950992	 4.366427	 0.327227	 4.654477	 18.955880	-1.671139	-5.863690	 21.558120	 2.383304	 5.335277	 4.427801	-0.167445	-0.172660	-5.029525	-0.124975	-2.035279	-2.135853	-3.149956	 118.391300	-0.151583	-90.761470	-1.200263	 46.747430	-4.053847	-5.952578	-0.196358	 0.959474	-7.914997	-5.522087	-11.525190	-2.328686	 25.175530	 1.278092	 15.650970	 44.184070	-11.528160	-8.531854	 23.170420	-1.173132
-0.045456	 1.238296	-1.271179	-3.308817	 0.997465	-173.797900	 177.893300	 7.143053	-24.721380	 4.488942	-30.561160	 6.529329	 9.671072	 81.565180	-2.842688	 1.538379	 31.564040	-2.823996	 161.909200	 28.698890	 31.826790	-5.714960	-52.943190	 6.725821	 2.406133	 72.864260	-2.668324	-1.679899	 33.273070	 2.891882	-0.973081	 8.415502	-6.235197	 0.340986	 3.589689	-0.896329	-0.222825	-4.030707	-0.772267	-121.350700	 7.747563	 94.196430	 43.952150	 7.047371	-17.773990	 5.528475	-0.217775	-1.331748	-4.425991	 3.776280	-0.556139	 4.666058	 18.993810	-1.677330	-5.863593	 21.591450	 2.386984	 5.336707	 4.461322	-0.166838	-0.174296	-5.037138	-0.117444	-2.007568	-2.174653	-3.153890	 118.379000	-0.204408	-90.736690	-0.621478	 46.544550	-4.350849	-6.340399	-0.197270	 1.306236	-7.901738	-5.688127	-11.519340	-2.287309	 24.863490	 1.256387	 15.575350	 43.879360	-11.409720	-8.532714	 22.857220	-1.152400
